<svg width="18" height="18" viewBox="0 0 18 18" fill="none" xmlns="http://www.w3.org/2000/svg">
<path d="M9 8.6C8.24224 8.6 7.51551 8.38929 6.9797 8.01421C6.44388 7.63914 6.14286 7.13043 6.14286 6.6C6.14286 6.06957 6.44388 5.56086 6.9797 5.18579C7.51551 4.81071 8.24224 4.6 9 4.6C9.75776 4.6 10.4845 4.81071 11.0203 5.18579C11.5561 5.56086 11.8571 6.06957 11.8571 6.6C11.8571 6.86264 11.7832 7.12272 11.6397 7.36537C11.4961 7.60802 11.2856 7.8285 11.0203 8.01421C10.755 8.19993 10.44 8.34725 10.0934 8.44776C9.74674 8.54827 9.37521 8.6 9 8.6ZM9 1C6.87827 1 4.84344 1.59 3.34315 2.6402C1.84285 3.69041 1 5.11479 1 6.6C1 10.8 9 17 9 17C9 17 17 10.8 17 6.6C17 5.11479 16.1571 3.69041 14.6569 2.6402C13.1566 1.59 11.1217 1 9 1Z" fill="white"/>
</svg>
