<svg width="18" height="18" viewBox="0 0 18 18" fill="none" xmlns="http://www.w3.org/2000/svg">
<path d="M16.0667 17C14.1556 17 12.2927 16.5739 10.4782 15.7218C8.66311 14.8702 7.0557 13.7443 5.656 12.344C4.2557 10.9443 3.12978 9.33689 2.27822 7.52178C1.42607 5.70726 1 3.84444 1 1.93333C1 1.66667 1.08889 1.44444 1.26667 1.26667C1.44444 1.08889 1.66667 1 1.93333 1H5.53333C5.74074 1 5.92593 1.06667 6.08889 1.2C6.25185 1.33333 6.34815 1.5037 6.37778 1.71111L6.95556 4.82222C6.98519 5.02963 6.98163 5.21837 6.94489 5.38844C6.90756 5.55911 6.82222 5.71111 6.68889 5.84444L4.55556 8.02222C5.17778 9.08889 5.95556 10.0889 6.88889 11.0222C7.82222 11.9556 8.85185 12.763 9.97778 13.4444L12.0667 11.3556C12.2 11.2222 12.3742 11.1221 12.5893 11.0551C12.8039 10.9887 13.0148 10.9704 13.2222 11L16.2889 11.6222C16.4963 11.6667 16.6667 11.7665 16.8 11.9218C16.9333 12.0776 17 12.2593 17 12.4667V16.0667C17 16.3333 16.9111 16.5556 16.7333 16.7333C16.5556 16.9111 16.3333 17 16.0667 17Z" fill="white"/>
</svg>
