<svg width="38" height="38" viewBox="0 0 38 38" fill="none" xmlns="http://www.w3.org/2000/svg">
<path d="M24.2409 29.925C22.7209 31.5084 20.9792 33.1392 19 34.8334C10.5609 27.6292 6.33337 21.4067 6.33337 16.15C6.33337 8.26502 12.35 3.16669 19 3.16669C25.3334 3.16669 31.0967 7.79002 31.6192 15.0417H37.2084L30.0834 22.1667L22.9584 15.0417H28.4525C27.9459 9.88002 23.9559 6.33335 19 6.33335C13.6959 6.33335 9.50004 10.4025 9.50004 16.15C9.50004 19.855 12.5875 24.7634 19 30.6217C20.0134 29.6875 20.9475 28.785 21.8025 27.9142C21.5239 27.3644 21.3775 26.7572 21.375 26.1409C21.375 25.091 21.7921 24.0842 22.5344 23.3419C23.2767 22.5996 24.2836 22.1825 25.3334 22.1825C26.3832 22.1825 27.39 22.5996 28.1323 23.3419C28.8747 24.0842 29.2917 25.091 29.2917 26.1409C29.2912 26.7531 29.1481 27.3569 28.8739 27.9043C28.5997 28.4518 28.2019 28.9279 27.7119 29.295C27.2219 29.6621 26.6531 29.9102 26.0507 30.0195C25.4483 30.1289 24.8286 30.0965 24.2409 29.925Z" fill="white"/>
</svg>
