<svg width="28" height="28" viewBox="0 0 28 28" fill="none" xmlns="http://www.w3.org/2000/svg">
<path d="M13.8843 10.8254V7.01589H9.919V4.47621H13.8843V0.666687H16.5278V4.47621H20.4931V7.01589H16.5278V10.8254H13.8843ZM8.59723 27.3334C7.87026 27.3334 7.24815 27.0849 6.7309 26.588C6.21276 26.0902 5.9537 25.4921 5.9537 24.7937C5.9537 24.0953 6.21276 23.4972 6.7309 22.9994C7.24815 22.5025 7.87026 22.254 8.59723 22.254C9.32421 22.254 9.94632 22.5025 10.4636 22.9994C10.9817 23.4972 11.2408 24.0953 11.2408 24.7937C11.2408 25.4921 10.9817 26.0902 10.4636 26.588C9.94632 27.0849 9.32421 27.3334 8.59723 27.3334ZM21.8149 27.3334C21.0879 27.3334 20.4658 27.0849 19.9486 26.588C19.4304 26.0902 19.1714 25.4921 19.1714 24.7937C19.1714 24.0953 19.4304 23.4972 19.9486 22.9994C20.4658 22.5025 21.0879 22.254 21.8149 22.254C22.5419 22.254 23.1644 22.5025 23.6826 22.9994C24.1998 23.4972 24.4584 24.0953 24.4584 24.7937C24.4584 25.4921 24.1998 26.0902 23.6826 26.588C23.1644 27.0849 22.5419 27.3334 21.8149 27.3334ZM8.59723 20.9841C7.60591 20.9841 6.84589 20.5659 6.31718 19.7295C5.78848 18.894 5.77746 18.0635 6.28414 17.2381L8.06853 14.127L3.31016 4.47621H0.666626V1.93653H4.99542L10.6129 13.3651H19.8983L25.0202 4.47621L27.3333 5.68256L22.2114 14.5714C21.9691 14.9947 21.6497 15.3228 21.2532 15.5556C20.8566 15.7884 20.405 15.9048 19.8983 15.9048H10.0512L8.59723 18.4445H24.4584V20.9841H8.59723Z" fill="white"/>
</svg>
